<?xml version="1.0" encoding="UTF-8"?>
<!-- Generator: Adobe Illustrator 26.0.3, SVG Export Plug-In . SVG Version: 6.00 Build 0)  -->
<svg xmlns="http://www.w3.org/2000/svg" xmlns:xlink="http://www.w3.org/1999/xlink" version="1.1" id="Layer_1" x="0px" y="0px" viewBox="0 0 850.4 677.6" style="enable-background:new 0 0 850.4 677.6;" xml:space="preserve">
<style type="text/css">
	.st0{fill:#FFFFFF;}
	.st1{fill:none;}
	.st2{fill:none;stroke:#FFFFFF;stroke-width:4;stroke-miterlimit:10;}
</style>
<path class="st0" d="M281.7,644.5c-10.9,2.6-21.6,5.2-32.4,7.4c-25.6,5.4-48.9-0.2-69.9-15.4c-0.4-0.3-0.7-0.7-1.6-1.4  c7.3,1.4,14.1,2.1,21,1.5c6.5-0.5,13-1.3,19.3-2.4c22.1-3.8,42.9-0.4,62.8,9.8C281.2,644.1,281.4,644.3,281.7,644.5z"></path>
<path class="st0" d="M568.4,644.6c9.9-5,19.6-8.6,29.9-10.5c10.1-1.9,20.3-1.7,30.6-0.3c7.4,1,14.8,2,22.1,2.8  c6.8,0.6,13.5,0.1,20.3-1.2c0.4-0.1,0.7-0.1,1.5-0.2c-0.5,0.5-0.7,0.9-1.1,1.2c-10.9,7.9-22.7,13.7-36,16.3c-10.4,2-20.7,2-31,0  c-8.8-1.7-17.5-3.9-26.4-6C575.1,645.8,572.1,645.4,568.4,644.6z"></path>
<path class="st0" d="M621.1,658.7c-6.1,3.1-12.3,5.6-18.8,7.5c-18.6,5.7-37.1,4.9-55.4-1.3c-6.8-2.3-13.4-4.9-20.2-7.2  c-3.4-1.2-6.9-2.1-10.5-3.3c0.6-0.3,1.2-0.6,1.7-0.9c13.2-4.9,26.7-7.2,40.7-6.1c8.1,0.6,15.9,2.8,23.7,4.7c7.4,1.8,14.8,3.6,22.3,5  c4.6,0.9,9.2,0.7,13.8,1.1c0.9,0.1,1.6,0,2.4,0C620.9,658.2,621.1,658.5,621.1,658.7z"></path>
<path class="st0" d="M334.4,654.5c-1.1,0.3-2.1,0.5-3.2,0.9c-5.5,1.9-11.2,3.7-16.6,5.7c-9.2,3.4-18.6,6.5-28.4,8  c-13.7,2-27.1,0.6-40.2-3.7c-5.1-1.7-10-3.9-15-6.1c-0.5-0.2-1.1-0.6-1.7-1c0.3-0.2,0.4-0.4,0.6-0.4c12.6,0.5,24.8-2.3,36.8-5.4  c7.2-1.9,14.5-3.5,21.8-4.7c11.8-1.9,23.6-0.6,35.1,2.7c3.7,1.1,7.2,2.3,10.8,3.4C334.4,654.2,334.4,654.4,334.4,654.5z"></path>
<path class="st0" d="M231,628.3c-0.4,0.3-0.5,0.4-0.6,0.4c-8.6-0.2-17,1.4-25.5,2.1c-18.3,1.5-35.8-0.6-52.2-9.7  c-8-4.5-15.2-10-22-16.9c0.9,0.1,1.2,0.1,1.4,0.2c8.9,3.2,18.3,4,27.7,4.5c7.5,0.3,15.1,0.5,22.5,1.1c16,1.2,30.6,6.5,44.1,15.2  C227.8,626.1,229.3,627.1,231,628.3z"></path>
<path class="st0" d="M620,628.3c0.6-0.5,1.3-1.1,1.9-1.5c14.1-9.7,29.5-15.5,46.7-16.8c6.1-0.4,12-0.9,18.1-1  c8.9-0.2,17.9-0.6,26.6-2.9c2-0.5,4-1.2,6.7-1.9c-0.7,1-1,1.4-1.4,1.7c-12.5,12-27,20.6-44.2,23.9c-9.4,1.7-18.6,1.8-28.1,1.1  C637.4,630.1,628.9,629.1,620,628.3z"></path>
<path class="st0" d="M55.7,519.7c0.4,0.1,0.6,0.2,0.9,0.2c8.2,6.4,17.5,10.4,27.4,13.4c9.9,3.1,19.5,6.9,28,13  c10.3,7.2,18.9,16,27,25.7c0.2,0.2,0.2,0.5,0.4,1c-3.2-0.9-6.2-1.6-9.4-2.2c-9-1.9-18.1-3.7-26.7-6.7c-13.8-4.9-25.7-12.5-35.1-23.9  c-4.8-5.7-8.7-12-11.9-18.8C56,520.9,55.9,520.4,55.7,519.7z"></path>
<path class="st0" d="M795.2,519.5c-0.6,1.4-1.1,2.4-1.5,3.4c-11.2,22.5-29,36.9-53.3,43.4c-7.3,2-14.9,3.4-22.3,5.1  c-2.2,0.5-4.5,1.2-6.9,1.7c0.4-0.6,0.5-1,0.6-1.3c7.9-9.2,16.3-17.9,26.1-25c8.2-5.8,17.3-9.8,26.9-12.8c7.5-2.4,15.1-4.9,21.8-9  C789.5,523.4,792.1,521.4,795.2,519.5z"></path>
<path class="st0" d="M747.6,534.3c1.1-2,1.8-3.5,2.6-5c8.5-16.4,20.7-29.1,36.9-38.2c4.9-2.8,9.8-5.4,14.7-8.1  c6.4-3.5,12.4-7.4,17.8-12.5c0.2-0.2,0.6-0.4,1.4-1c-0.5,1.6-0.7,2.8-1.2,3.8c-7.4,21.8-21.6,37.7-42,48.1c-7,3.5-14.5,6.3-21.8,9.4  C753.4,532.1,750.7,533.1,747.6,534.3z"></path>
<path class="st0" d="M29.8,469.7c0.5,0.4,0.9,0.5,1.2,0.7c5.7,5.5,12.4,9.7,19.3,13.5c6.1,3.4,12.2,6.7,18.2,10.4  c15.5,9.5,26.5,23.2,34.2,39.5c-0.3,0.1-0.5,0.2-0.7,0.1c-4.9-1.9-9.7-3.8-14.6-5.7c-9.8-3.8-19.1-8.4-27.4-14.6  c-14.8-10.8-24.4-25.3-29.9-42.6C30,470.8,30,470.3,29.8,469.7z"></path>
<path class="st0" d="M760.8,565.2c-5.2,8.7-11.9,15.8-20.1,21.7c-10.2,7.2-21.8,11.6-34,14c-8.5,1.6-17.1,2.2-25.8,2.8  c-4.1,0.2-8.3,0.6-12.6,1c0.2-0.3,0.2-0.6,0.4-0.9c9.9-8.4,20.3-15.9,32.2-21.4c8.2-3.7,16.8-5.7,25.7-7.1  c8.8-1.4,17.6-2.7,25.9-6.2C755.3,568,758.1,566.5,760.8,565.2z"></path>
<path class="st0" d="M182.7,604.8c-10.7-1-21.2-1.6-31.7-2.8c-19.1-2.3-36.5-9-50.4-22.9c-3.7-3.7-6.8-8.1-10.2-12.1  c-0.3-0.4-0.5-0.9-1.1-1.9c1.2,0.5,1.7,0.6,2.1,1c8,4.5,16.7,6.8,25.6,8.3c9,1.4,18.1,2.7,26.7,5.8c12.1,4.5,22.9,11.3,32.8,19.2  c1.9,1.5,3.7,3.1,5.6,4.6C182.4,604.1,182.4,604.4,182.7,604.8z"></path>
<path class="st0" d="M777.2,489.2c0.1-0.4,0-0.7,0.1-1.1c4.6-14.1,11.2-27.2,21.6-37.9c4.9-5,10.4-9.2,16-13.4  c3.8-2.8,7.8-5.4,11.5-8.5c4.1-3.5,8.1-7.2,12.3-11.2c-0.4,2.4-0.7,4.7-1.3,7c-3.9,18.7-13.8,33.7-28.8,45.4  c-3.8,3-7.9,5.7-11.9,8.2C790.4,481.8,783.9,485.5,777.2,489.2z"></path>
<path class="st0" d="M12,417c0.5,0.4,0.9,0.6,1.1,1c4.3,5.2,9.5,9.5,14.9,13.4c3.8,2.8,7.7,5.6,11.5,8.4  c16.6,11.9,27.3,28,33.5,47.1c0.2,0.7,0.5,1.6,0.9,2.8c-10.5-6.7-21.4-11.7-30.9-19.1c-17-13.1-27.3-30.1-30.6-51.3  C12,418.7,12.1,418,12,417z"></path>
<path class="st0" d="M460.6,653.9c8.3-6,13.5-13.9,20-20.8c5.3-5.7,10.8-11.2,17.4-15.5c10.4-6.8,22.4-9.7,33.8-7.8  c-0.3,1.1-0.5,2-1,3.1c-2.6,6.8-6.7,12.6-11.9,17.8c-7,6.8-15.3,11.8-24.3,15.5C484.8,650.1,471.7,653,460.6,653.9z"></path>
<path class="st0" d="M387.7,658.3c-0.5,0.4-0.6,0.5-0.9,0.6c-7,3-14,5.8-21,9c-7.1,3.2-14.2,6.5-21.8,8.7c-1.6,0.5-3.3,0.7-4.9,0.7  c-14.5,0.1-28.8,0.1-43.3,0c-4.7,0-8.8-2.1-13.3-3.5c0-0.2,0.1-0.4,0.1-0.5c2.8-0.4,5.4-0.6,8.2-1.1c8.2-1.4,16-4,23.7-6.9  c7.8-2.9,15.5-6,23.4-8.3c15.2-4.5,30.5-3.8,45.7,0.1C385,657.5,386.3,657.9,387.7,658.3z"></path>
<path class="st0" d="M319,609.6c8.2-1.2,15.8-0.2,23.3,2.7c6.7,2.4,12.8,6.2,17.9,11.1c4.8,4.6,9.2,9.4,13.8,14.1  c1.6,1.6,2.9,3.4,4.4,5.1c3.5,4.1,6.9,8.2,11.5,11.3c-17.9-1.8-34.8-6.1-49.7-16.4c-8.2-5.6-14.8-12.6-19.1-21.8  c-0.6-1.4-1.2-2.9-1.7-4.5C319.1,610.8,319.1,610.4,319,609.6z"></path>
<path class="st0" d="M462.8,658.3c6.1-1.8,11.8-2.9,17.6-3.7c16-2.1,31.2,1.2,46,7c5,2,10,3.9,15.1,5.7c8.5,3.1,17.2,5.2,26.9,5.8  c-0.9,0.5-1.2,0.9-1.6,1c-2.9,1-5.8,1.9-8.7,2.8c-1,0.3-2,0.4-3.1,0.4c-14.7,0-29.4,0.1-44.1,0c-1.4,0-2.9-0.3-4.4-0.7  c-8.6-2.7-16.8-6.5-25-10.2c-5.8-2.7-11.8-5-17.8-7.4C463.6,658.9,463.4,658.8,462.8,658.3z"></path>
<path class="st0" d="M1.5,362.8c6.4,9,14.6,15.5,22,22.9c10.2,10.1,18.6,21.5,23.8,35.1c2.1,5.6,3.6,11.5,4.7,17.4  c0.1,0.9,0.1,1.6,0.2,2.7c-3.9-3.1-7.8-6-11.5-8.7c-7.4-5.7-14.6-11.9-20.7-19c-8.3-9.7-14.3-20.5-17.2-33.1  C1.5,374.3,1,368,1.5,362.8z"></path>
<path class="st0" d="M798.3,441c0.5-5.1,1.6-9.8,3-14.5c4.5-15,12.6-27.6,23.5-38.7c3.1-3.1,6.2-6.2,9.4-9.1  c5.2-4.9,10.4-9.8,14.9-16c0.1,1,0.3,1.6,0.3,2.1c0.1,15.4-4.7,29.2-13.7,41.7c-3.4,4.6-7.2,8.7-11.2,12.9  C816.7,427.5,807.4,433.8,798.3,441z"></path>
<path class="st0" d="M580,598.4c-0.2,1.4-0.4,2.4-0.6,3.4c-2.3,9.1-7.2,16.8-13.7,23.6c-9.8,10.2-21.9,16.5-35.2,20.6  c-4.3,1.3-8.6,2.2-13,3.3c-0.7,0.2-1.6,0.2-2.9,0.2c8.6-8,14-18.1,21.2-26.7c4.5-5.4,9.4-10.6,15-14.9c7.9-5.8,16.6-9.1,26.3-9.6  C577.9,598.4,578.7,598.4,580,598.4z"></path>
<path class="st0" d="M336.6,649.8c-7-1.1-13.3-2.7-19.5-4.8c-9.4-3.2-18.2-7.7-25.9-13.9c-8.4-6.8-15-15-18.8-25.2  c-0.7-2-1.3-4.1-1.8-6.2c-0.1-0.3,0-0.6,0-1.3c3.1-0.3,6.1,0.1,8.9,0.6c9,1.5,16.8,5.7,23.7,11.6c6.2,5.2,11.2,11.5,15.9,17.9  c1.7,2.4,3.5,4.9,5.2,7.2C328,640.7,331.3,645.8,336.6,649.8z"></path>
<path class="st0" d="M625.5,581.2c-0.2,4.6-0.9,8.3-1.9,11.9c-3.8,12.4-11.4,22.2-21.4,30.3c-10,8-21.5,13.3-33.8,16.6  c-0.2,0.1-0.5,0-1.1,0c4.9-4.9,7.9-10.8,11.1-16.6c3.9-6.9,8-13.8,12.9-20.2c7.2-9.4,15.9-16.6,27.4-20.2  C620.8,582.2,623,581.8,625.5,581.2z"></path>
<path class="st0" d="M11.4,199.1c0.3,0.3,0.5,0.5,0.6,0.6c3.9,7.8,7.9,15.6,11.8,23.4c4.6,9.2,8,18.8,9.5,29  c1.5,10.5,0.9,20.9-1.7,31.2c-0.1,0.4-0.2,0.6-0.5,1.3c-0.5-0.7-1-1.3-1.3-1.9c-4.3-7-8.6-13.9-12.5-21c-5-9-8.4-18.6-10-28.8  c-1.8-11.2-1-22.1,3.5-32.5C11,199.9,11.2,199.5,11.4,199.1z"></path>
<path class="st0" d="M225.1,581.3c1.4,0.2,2.3,0.4,3.4,0.5c10.2,2.4,18.6,7.9,25.8,15.3c6,6.2,10.6,13.4,15,20.8  c1.2,1.9,2.2,3.8,3.3,5.8c3.2,5.5,6.1,11.3,10.3,16.3c-2.6-0.9-5.2-1.5-7.8-2.3c-13-4.5-24.6-11.2-34-21c-8.1-8.5-13.6-18.4-15.5-30  C225.3,585,225.2,583.3,225.1,581.3z"></path>
<path class="st0" d="M839.3,198.9c2.7,5.7,4.1,11.5,4.8,17.3c1.4,13.3-1.7,25.8-7,37.9c-2.4,5.5-5.3,10.8-8.3,16  c-2.8,4.9-5.8,9.5-8.9,14.5c-0.3-0.6-0.5-1.2-0.6-1.6c-4.6-18.8-2.7-36.9,5.3-54.4c1.8-3.9,3.7-7.9,5.7-11.8  C832.9,211,836,205.2,839.3,198.9z"></path>
<path class="st0" d="M666.5,600c3.5-12.2,6.6-23.8,10.1-35.4c2.4-8,6-15.6,10.5-22.6c3.5-5.4,7.7-10.3,13.1-14  c0.7-0.5,1.6-1,2.4-1.6c1.4,3.7,1.9,7.4,2.1,11.2c0.7,11.3-1.7,21.8-7,31.7c-6.6,12.3-16,22.1-28.2,29.1  C668.9,598.8,667.9,599.3,666.5,600z"></path>
<path class="st0" d="M148.1,526.4c0.9,0.5,1.6,1,2.3,1.4c5,3.5,9,8,12.4,13.1c6.1,9.1,10.1,19.2,13.1,29.8c2,6.8,3.7,13.8,5.6,20.7  c0.7,2.7,1.6,5.3,2.4,8.3c-0.9-0.4-1.4-0.5-2-0.9c-14.5-8.2-25.3-19.9-31.7-35.2c-4.6-11.1-6-22.6-3.2-34.4c0.1-0.6,0.3-1.3,0.5-1.9  C147.6,527.2,147.9,526.9,148.1,526.4z"></path>
<path class="st0" d="M232,623.5c-0.6-0.1-0.9-0.1-1.1-0.2c-14.6-6.2-27.2-14.9-36.6-28c-7.4-10.4-11.5-22-10.9-35  c0.1-0.7,0.1-1.5,0.2-2.2c0.1-0.2,0.2-0.5,0.4-0.9c0.9,0.2,1.6,0.5,2.3,0.9c7,2.9,13,7.2,18,13c6.9,7.8,11.6,16.8,15.6,26.3  c1,2.4,1.9,4.9,2.9,7.2C225.6,610.9,227.8,617.5,232,623.5z"></path>
<path class="st0" d="M619,623.1c0.7-1.3,1.6-2.4,2.1-3.7c1.9-4.3,3.7-8.5,5.6-12.8c3.1-7,6.1-14.1,9.5-21c3.4-6.9,8-13,13.6-18.3  c4-3.8,8.6-6.8,13.7-8.9c1-0.4,1.9-0.6,3.1-1.2c0.5,2.7,0.6,5.2,0.5,7.7c-0.6,13.3-5.7,24.7-14.1,34.8c-8.8,10.6-20,18.1-32.5,23.4  c-0.3,0.1-0.6,0.2-1.1,0.3C619.3,623.3,619.3,623.2,619,623.1z"></path>
<path class="st0" d="M709.8,568.1c2.3-8.2,2.1-16,2.7-23.8c0.6-10.7,1.6-21.4,4.9-31.6c2.4-7.5,6.3-14.5,11.8-20.3c1-1,2-1.9,3-2.9  c5,7.4,7.1,25.4,3.8,39.4C732.2,545,723.5,557.9,709.8,568.1z"></path>
<path class="st0" d="M118.3,489.5c1,0.9,1.8,1.6,2.7,2.4c7.5,7.7,11.8,17,14.1,27.3c1.6,6.9,2.4,14.1,2.9,21.3  c0.4,6.2,0.6,12.4,1.2,18.6c0.2,2.8,1,5.6,1.4,8.7c-12.5-9.2-20.8-21-25.1-35.7C111.1,516.8,113,499.3,118.3,489.5z"></path>
<path class="st0" d="M0.6,252.8c6.5,10.2,12.8,19.7,18.8,29.4c6.1,9.8,10,20.5,11.6,32c1,6.5,1.2,15.9-0.2,23.3  c-0.3-0.5-0.5-1.1-1-1.5c-3.1-3.8-6.2-7.7-9.4-11.5c-7.9-9.7-14.2-20.1-18.4-32c-1.4-4.1-2.2-8.4-2.1-12.8c0.2-7.3,0-14.7,0.1-22.1  C0.2,256.2,0.4,254.7,0.6,252.8z"></path>
<path class="st0" d="M819.5,337.5c-0.2-0.9-0.4-1.3-0.4-1.6c-1.5-18.4,1.5-35.8,10.9-51.8c3.3-5.6,6.9-11.1,10.4-16.5  c2.8-4.5,5.4-8.8,8.2-13.3c0.2-0.4,0.5-0.7,1.2-1.6c0.2,1.7,0.5,2.9,0.5,4c0.1,8.9,0.1,17.9,0,26.8c0,1.4-0.3,2.8-0.6,4.1  c-2.9,11.2-8.1,21.2-14.9,30.4C830.1,324.5,824.8,330.8,819.5,337.5z"></path>
<path class="st0" d="M780.9,353.6c21.8,20.3,29.1,53.4,14.8,80.1c-0.2-0.6-0.4-1-0.6-1.5c-1.4-3.8-2.7-7.8-4.3-11.5  c-3.8-8.7-7.5-17.4-10-26.6c-3.4-12.4-4.3-24.9-0.9-37.4C780.2,355.9,780.6,354.9,780.9,353.6z"></path>
<path class="st0" d="M771.3,401.6c21.5,24.1,19.5,58.9,3.6,81.3c-0.5-6.9-2.9-13.3-4.6-19.7c-1.6-5.8-3.1-11.7-4.1-17.5  c-2.7-13.9-1.9-27.6,3.6-40.8C770.3,403.8,770.7,402.8,771.3,401.6z"></path>
<path class="st0" d="M79.2,401.5c2.7,5,4.1,9.9,5.2,15c2.4,12.2,1.6,24.2-1.4,36.2c-1.7,6.8-3.7,13.4-5.4,20.2  c-0.9,3.2-1.3,6.5-1.9,9.7c-4.9-3.7-11.8-23.6-12.1-36.1C62.9,429.5,68.1,414.6,79.2,401.5z"></path>
<path class="st0" d="M746.4,528.3c0.7-11.6-1.9-22.3-2.6-33.3c-0.6-11.5-0.3-22.9,3.7-33.9c1.9-5.3,4.8-10.4,7.7-13.5  C769.6,467.3,769.4,503.2,746.4,528.3z"></path>
<path class="st0" d="M69.6,353.4c1.8,5,2.7,9.6,3.1,14.2c1,11.5-1,22.4-4.8,33.2c-2.4,6.9-5.4,13.6-8.2,20.4  c-1.6,4.1-3.2,8.3-4.9,12.5c-6.1-11.5-8.3-23.8-6.9-36.8C49.6,380.1,57.4,365.8,69.6,353.4z"></path>
<path class="st0" d="M95.3,447.4c2.4,2.9,4.3,6,5.7,9c3.3,6.8,4.9,14,5.6,21.5c1,10.4-0.1,20.8-1.4,31.1c-0.4,3.9-1,8-1.3,11.9  c-0.2,2.3-0.1,4.6-0.1,6.7C85.4,509.4,78,473.4,95.3,447.4z"></path>
<path class="st0" d="M38.2,389c-5.7-5.5-11.7-10.9-17.2-16.7c-8.7-9-15.6-19.3-19.9-31.4c-0.5-1.6-0.9-3.4-1-5.2  C0,328.9,0,322.1,0,315.1c0-0.9,0.1-1.6,0.1-2.7c0.4,0.3,0.6,0.4,0.9,0.5c5.2,6.3,10.4,12.6,15.6,18.9c7.8,9,13.7,18.9,17.1,30.4  c2.6,8.5,3.8,17.2,4.4,26C38.3,388.8,38.2,389,38.2,389z"></path>
<path class="st0" d="M812.3,389c0.2-2.6,0.4-5.3,0.6-8c2-18.9,8.9-35.5,21.6-49.8c5.2-5.7,9.9-11.9,14.8-17.8  c0.2-0.2,0.4-0.3,0.9-0.6c0.1,1,0.2,1.6,0.2,2.3c0,7.1,0.1,14.1-0.1,21.2c0,1.6-0.3,3.4-0.9,4.9c-3.7,10.5-9.5,19.8-17,28  c-4.9,5.3-10.1,10.4-15.2,15.5C815.8,386.3,814,387.6,812.3,389z"></path>
<path class="st0" d="M66.9,305.2c0.2,2.1,0.6,4.1,0.6,6.3c0.4,9.5-1.7,18.6-4.7,27.6c-3.9,11.7-9.2,22.6-15.1,33.6  c-1.8,3.4-3.6,6.7-5.6,10.4c-1.6-3.7-2.4-7.1-3.2-10.7c-2.7-13.4-1.6-26.5,4.5-38.9c3.7-7.5,8.5-14.2,14.2-20.3  c2.7-2.8,5.5-5.4,8.3-8.2C66.3,305,66.7,305,66.9,305.2z"></path>
<path class="st0" d="M70.2,256.4c0.4,4.1,0,7.8-0.5,11.4c-1.4,9.6-4.7,18.6-9.6,26.9c-3.1,5.3-6.6,10.4-10,15.4  c-4.6,6.6-10.1,12.3-14,20c-0.4-1.6-0.6-2.7-0.9-3.7c-3.6-18.1,0.1-34.5,11.6-49c6.3-8,13.8-14.5,22.1-20.3  C69.1,256.9,69.5,256.8,70.2,256.4z"></path>
<path class="st0" d="M780.3,256.4c0.9,0.4,1.3,0.5,1.5,0.6c9,6.4,17.3,13.4,23.9,22.5c10.6,14.8,13.8,32.1,9.1,50.2  c-0.4-0.5-0.6-0.9-1-1.3c-2-3-3.9-6.1-6.1-9c-5.6-7.3-11.3-14.6-15.9-22.5c-5.7-9.8-9.8-20.1-11.1-31.4  C780.4,262.6,780.4,259.8,780.3,256.4z"></path>
<path class="st0" d="M808.5,383.1c-9-16.6-17.8-32.7-22.6-50.5c-2.1-7.7-3.4-15.4-2.7-23.4c0.1-1.4,0.4-2.8,0.6-4  c0.4,0.1,0.6,0,0.7,0.1c9.8,8.5,18.1,18.2,23.4,30.2c4.6,10.2,5.7,20.8,4.5,31.9C811.7,372.5,810.5,377.6,808.5,383.1z"></path>
<path class="st0" d="M813.3,276.6c-5.4-7.3-12.3-13.3-18.5-20c-7.3-8.1-14-16.7-18.8-26.6c-3.1-6.2-5.2-12.8-5.8-19.7  c-0.1-0.4,0-0.7,0-1.3c0.4,0.1,0.9,0.2,1.1,0.4c6.5,4.5,13.2,8.7,19.6,13.3c5.7,4.1,10.6,9.2,14.8,15.1c5.7,8.2,8.5,17.3,8.7,27.2  c0.1,3.8-0.2,7.5-0.4,11.4C813.8,276.6,813.5,276.6,813.3,276.6z"></path>
<path class="st0" d="M36.9,277c-0.2-2.4-0.4-4.5-0.5-6.5c-1-15.8,4.3-29.4,15.4-40.6c5.2-5.2,10.9-9.5,17-13.5c3.1-2,6.3-4,9.4-6.1  c0.6-0.4,1.4-0.7,2.7-1.4c-0.6,3.4-1,6.2-1.7,8.9c-2.1,8.7-6.2,16.5-11.3,23.8c-4.9,7.2-10.6,13.6-16.7,19.9  c-2.4,2.7-5.1,5.2-7.5,7.9C41.5,271.6,39.3,274,36.9,277z"></path>
<path class="st0" d="M424,674.7c-10.2,0-18.4-8.3-18.3-18.6c0.1-10.1,8.2-18.3,18.2-18.4c10.2-0.1,18.4,8.2,18.4,18.5  C442.4,666.5,434.2,674.7,424,674.7z"></path>
<path class="st0" d="M137.8,0c0.5,0.6,0.9,1,1.1,1.4c0.1,0.2,0.2,0.5,0.4,0.9c-0.2,0.2-0.4,0.6-0.6,0.9  C122.1,18.3,108,35.6,95.1,53.9C72,86.7,53.5,122,39.2,159.6c-2.7,7.1-5,14.5-7.4,21.6c-0.3,1-0.6,1.9-1.1,3.1  c-0.9-0.2-1.6-0.4-2.3-0.5c0-0.5-0.1-0.9,0-1.1c3.2-9.1,6.2-18.4,9.5-27.4c7.7-20.5,17-40.2,27.6-59.4C79.2,71,94.9,47.3,113.2,25.6  c6.9-8.2,14.1-16,22-23.4C135.8,1.7,136.7,1.1,137.8,0z"></path>
<path class="st0" d="M711.3,2.2c0.2-0.4,0.4-0.6,0.6-1c0.3-0.3,0.6-0.6,1.3-1.2c3.8,3.7,7.5,7.2,11.2,11.1  c19.3,20.2,35.6,42.7,50.2,66.5c14.1,23.3,26.4,47.5,36.4,72.8c3.9,10.1,7.2,20.5,10.8,30.7c0.2,0.7,0.4,1.6,0.6,2.6  c-0.9,0.2-1.5,0.5-2.3,0.7c-0.2-0.5-0.5-1-0.6-1.3c-3.9-10.9-7.4-22-11.8-32.8c-13.1-32.8-29.8-63.9-49.7-93  c-13.5-19.6-28.4-38.1-45.9-54.2C711.8,2.9,711.6,2.6,711.3,2.2z"></path>
<path class="st0" d="M715.9,33.9c0.6-0.6,1.3-1.1,2-1.7c10.1,11.2,19.2,22.9,27.7,35.1c23.7,33.9,41.9,70.5,55.1,109.6  c4.6,13.4,8.4,26.9,11.5,40.9c-1,0.2-1.6,0.5-2.4,0.7C793.2,149.4,762.8,87.7,715.9,33.9z"></path>
<path class="st0" d="M40.9,218.2c-2.4-0.4-2.7-0.4-2.1-2.7c1.2-4.7,2.2-9.4,3.5-14c6-21.9,13.5-43.3,22.9-64  c15.6-35,35.5-67.5,60.2-96.9c2.1-2.6,4.5-5,6.6-7.5c0.2-0.2,0.4-0.4,0.9-0.6c0.6,0.4,1.3,1,2,1.5C87.9,87.4,57.4,149.2,40.9,218.2z  "></path>
<path class="st0" d="M694.8,39.5c0.2-0.4,0.4-0.6,0.6-1s0.5-0.4,1-0.7c0.4,0.2,0.9,0.5,1.1,0.9c6,6.8,12.1,13.4,17.8,20.4  c30.4,38.4,52.9,81.1,68.4,127.4c0.9,2.4,1.5,5,2.3,7.8c-0.9,0.3-1.6,0.5-2.4,0.9C765,136.8,736.3,84.6,694.8,39.5z"></path>
<path class="st0" d="M154.1,37.3c0.9,0.9,1.4,1.4,1.9,2c-41.7,45.3-70.3,97.5-89,155.6c-0.5-0.1-1-0.1-1.4-0.2  c-0.3-0.1-0.6-0.4-1.3-0.7C83.2,135.5,112.1,82.9,154.1,37.3z"></path>
<rect x="278.8" y="393.3" class="st1" width="293.4" height="108.8"></rect>
<g>
	<g>
		<path class="st0" d="M368.7,248.9c-5.6,0-10,1.9-13.1,5.7c-3.2,3.8-4.7,9.4-4.7,16.6c0,6.2,1.4,11.1,4.3,14.7    c2.9,3.6,7.2,5.4,13.1,5.4c5.4,0,10.2-1.8,14-5.3c3.9-3.6,5.8-7.8,5.8-12.3c0-6.9-1.8-12.8-5.4-17.5    C379,251.3,374.4,248.9,368.7,248.9z"></path>
		<path class="st0" d="M576.3,294.1c-5.4,0-10.1,1.8-14,5.3c-3.8,3.5-5.8,7.8-5.8,12.4c0,6.9,1.8,12.8,5.4,17.5    c3.7,4.8,8.3,7.2,13.9,7.2c5.7,0,10.2-1.9,13.3-5.8c3.1-3.8,4.7-9.4,4.7-16.6c0-6.2-1.4-11.2-4.4-14.8    C586.5,295.8,582.1,294.1,576.3,294.1z"></path>
	</g>
	<g>
		<path class="st0" d="M537.1,407.8c-1.5,0-2.7,0.6-3.5,1.9c-0.9,1.3-1.3,3.1-1.3,5.5s0.4,4.3,1.3,5.4c0.9,1.2,2,1.7,3.6,1.7    c1.7,0,3-0.5,3.7-1.5c0.7-1,1.3-2.7,1.3-5v-0.7c0-2.7-0.4-4.5-1.2-5.6C540.2,408.4,538.9,407.8,537.1,407.8z"></path>
		<path class="st0" d="M404.9,407.7c-1.6,0-2.9,0.5-3.6,1.5c-0.7,1-1.2,2.7-1.2,5v0.7c0,2.7,0.4,4.5,1.2,5.6c0.7,1.2,2,1.7,3.7,1.7    c1.4,0,2.4-0.6,3.3-1.9c0.9-1.3,1.2-3.1,1.2-5.5s-0.4-4.3-1.3-5.4C407.3,408.3,406.2,407.7,404.9,407.7z"></path>
		<path class="st0" d="M510.7,407.1c-1.4,0-2.6,0.4-3.3,1.4c-0.9,0.9-1.3,2.1-1.4,3.8h9.4c0-1.6-0.4-2.9-1.3-3.8    C513.3,407.5,512.2,407.1,510.7,407.1z"></path>
		<path class="st0" d="M424,47.5c-135.6,0-245.5,109.9-245.5,245.5S288.4,538.6,424,538.6S669.5,428.7,669.5,293    S559.6,47.5,424,47.5z M336.9,239.4c7.8-8,18.4-11.9,31.8-11.9c9.5,0,17.8,2.2,24.8,6.7c7.1,4.5,12.5,10.8,16.3,19.2    c3.7,8.4,5.6,18.5,5.6,30.1c0,25.2-5.3,43.9-15.9,56.3s-26.7,18.6-48.1,18.6c-7.5,0-13.3-0.4-17.2-1.3v-21.7    c4.9,1.3,10,1.9,15.4,1.9c9,0,16.5-1.3,22.3-3.9c5.8-2.7,10.2-6.8,13.4-12.5c3.1-5.6,4.9-13.5,5.3-23.5h-1.1    c-3.4,5.4-7.2,9.4-11.7,11.6s-10,3.3-16.6,3.3c-11.2,0-19.9-3.5-26.3-10.7s-9.7-17-9.7-29.8C325.3,258.1,329.2,247.3,336.9,239.4z     M291.1,356.8L291.1,356.8h-27v-74l0.2-12.1l0.4-13.3c-4.5,4.5-7.5,7.4-9.4,8.8L240.8,278l-13-16.3l41.1-32.7h22.2L291.1,356.8    L291.1,356.8z M318.6,400.8H307v7h10.8v5.5H307v8.3h11.6v5.6h-18.4v-32h18.4V400.8z M339.1,425.7c-1.7,1.3-4.4,2-7.8,2    c-1.8,0-3.3-0.1-4.6-0.3c-1.3-0.2-2.4-0.6-3.5-1.1v-5.5c1.3,0.5,2.7,1.1,4.1,1.5c1.5,0.4,2.9,0.6,4.1,0.6c2.4,0,3.6-0.7,3.6-2.1    c0-0.5-0.2-1-0.5-1.3c-0.3-0.3-0.9-0.7-1.7-1.1c-0.7-0.4-1.8-0.9-3.2-1.5c-1.9-0.7-3.3-1.5-4.1-2.2c-0.9-0.7-1.5-1.5-1.9-2.3    c-0.4-0.9-0.6-1.9-0.6-3.2c0-2.1,0.9-3.8,2.6-5c1.7-1.2,4-1.8,7.1-1.8c3,0,5.8,0.6,8.6,1.9l-2,4.8c-1.3-0.5-2.3-1-3.4-1.3    c-1.1-0.3-2.1-0.5-3.3-0.5c-2,0-3,0.5-3,1.6c0,0.6,0.3,1.1,1,1.6c0.6,0.4,2,1.1,4.1,1.9c1.9,0.7,3.3,1.5,4.1,2.1    c0.9,0.6,1.6,1.5,2,2.3c0.6,0.9,0.9,1.9,0.9,3.1C341.7,422.5,340.9,424.4,339.1,425.7z M361.4,426.6c-1.7,0.7-3.7,1.1-6.2,1.1    c-2.7,0-4.6-0.6-5.8-2c-1.2-1.4-1.8-3.4-1.8-6.1v-11.8h-3.2V405l3.7-2.2l1.9-5.2h4.3v5.2h6.8v5h-6.8v11.9c0,1,0.3,1.6,0.9,2.1    c0.5,0.4,1.2,0.6,2.1,0.6c1.2,0,2.6-0.2,4.1-0.7V426.6z M386.5,427.4h-4.6v-0.1l-1.3-3.3h-0.2c-1.2,1.4-2.2,2.4-3.5,3    c-1.2,0.5-2.8,0.9-4.7,0.9c-2.3,0-4.1-0.6-5.5-2c-1.4-1.4-2-3.3-2-5.7c0-2.6,1-4.5,2.8-5.7c1.8-1.3,4.6-1.9,8.2-2l4.3-0.1v-1.1    c0-2.4-1.3-3.7-3.8-3.7c-1.9,0-4.3,0.6-6.9,1.8l-2.2-4.5c2.8-1.5,6-2.2,9.4-2.2c3.3,0,5.7,0.7,7.5,2.1c1.7,1.4,2.7,3.6,2.7,6.5    L386.5,427.4L386.5,427.4z M413.7,424.4c-1.7,2.2-3.9,3.3-6.9,3.3c-2.9,0-5.1-1.1-6.8-3.1h-0.4l-1.1,2.7h-5.1v-34h6.7v7.9    c0,1-0.1,2.7-0.2,4.8h0.2c1.5-2.3,3.8-3.5,6.9-3.5c2.9,0,5.1,1.2,6.8,3.4c1.6,2.2,2.4,5.3,2.4,9.2    C416.2,419.1,415.4,422.2,413.7,424.4z M428.4,427.3h-6.7v-34h6.7V427.3z M442,427.3h-6.7v-24.4h6.7V427.3z M441.3,398.9    c-0.6,0.5-1.5,0.9-2.8,0.9c-2.3,0-3.5-1.1-3.5-3.3c0-2.1,1.2-3.3,3.6-3.3s3.6,1.1,3.6,3.3C442.3,397.5,442,398.3,441.3,398.9z     M463.4,425.7c-1.8,1.3-4.4,2-7.8,2c-1.8,0-3.3-0.1-4.6-0.3c-1.3-0.2-2.4-0.6-3.5-1.1v-5.5c1.3,0.5,2.7,1.1,4.1,1.5    c1.5,0.4,2.9,0.6,4.1,0.6c2.4,0,3.6-0.7,3.6-2.1c0-0.5-0.2-1-0.5-1.3s-0.9-0.7-1.7-1.1c-0.7-0.4-1.8-0.9-3.2-1.5    c-1.9-0.7-3.3-1.5-4.1-2.2c-0.9-0.7-1.5-1.5-1.9-2.3c-0.4-0.9-0.6-1.9-0.6-3.2c0-2.1,0.9-3.8,2.6-5c1.7-1.2,4-1.8,7.1-1.8    c3,0,5.8,0.6,8.6,1.9l-2,4.8c-1.3-0.5-2.3-1-3.4-1.3c-1.1-0.3-2.1-0.5-3.3-0.5c-2,0-3,0.5-3,1.6c0,0.6,0.3,1.1,1,1.6    c0.6,0.4,2,1.1,4.1,1.9c1.9,0.7,3.3,1.5,4.1,2.1c0.9,0.6,1.6,1.5,2,2.3c0.6,0.9,0.9,1.9,0.9,3.1    C466.1,422.5,465.2,424.4,463.4,425.7z M441.4,356.8l47.9-104.9h-62.9v-22.7h91.7v17l-48.4,110.6L441.4,356.8z M493.8,427.3h-6.7    V413c0-3.5-1.3-5.3-3.9-5.3c-1.9,0-3.2,0.6-4,1.9c-0.9,1.3-1.3,3.3-1.3,6.2v11.5h-6.7v-34h6.7v6.9c0,0.5,0,1.8-0.1,3.8l-0.1,2h0.3    c1.5-2.3,3.8-3.6,7.1-3.6c2.9,0,5,0.7,6.5,2.3c1.5,1.6,2.2,3.7,2.2,6.6V427.3z M521.7,416.6h-15.7c0.1,1.9,0.6,3.4,1.7,4.5    c1.1,1.1,2.6,1.6,4.5,1.6c1.5,0,2.9-0.1,4.1-0.4c1.3-0.3,2.7-0.7,4.1-1.5v5.2c-1.2,0.5-2.4,1.1-3.7,1.3c-1.5,0.2-3.1,0.4-5,0.4    c-3.9,0-7-1.1-9.2-3.3c-2.2-2.1-3.3-5.2-3.3-9.2c0-4.1,1.1-7.2,3.1-9.5c2-2.2,4.9-3.4,8.5-3.4c3.4,0,6.2,1,8.1,3    c1.9,2,2.9,4.7,2.9,8.2L521.7,416.6L521.7,416.6z M548.5,427.3h-5.1l-1.3-3.2h-0.3c-1.5,2.4-3.8,3.6-6.9,3.6    c-2.9,0-5.1-1.1-6.8-3.3c-1.6-2.2-2.4-5.3-2.4-9.2c0-4,0.9-7.1,2.6-9.4c1.7-2.2,3.9-3.4,6.9-3.4c3.1,0,5.4,1.2,7,3.6h0.2    c-0.3-1.8-0.5-3.4-0.5-4.9v-7.9h6.7V427.3z M576.6,358.6c-9.5,0-17.6-2.1-24.7-6.5c-7-4.4-12.4-10.7-16.3-19.1    c-3.7-8.5-5.7-18.7-5.7-30.5c0-25.3,5.3-44.1,16-56.4c10.7-12.3,26.7-18.5,48-18.5c7.2,0,13,0.4,17.1,1.3v21.6    c-5.2-1.2-10.3-1.7-15.4-1.7c-9.2,0-16.8,1.4-22.6,4.3c-5.8,2.9-10.2,6.9-13.2,12.4c-3,5.5-4.7,13.3-5.2,23.3h1.2    c5.7-9.9,15-14.9,27.7-14.9c11.5,0,20.4,3.6,26.9,10.7c6.5,7.1,9.7,17.1,9.7,29.8c0,13.6-3.8,24.4-11.6,32.4    C600.9,354.7,590.2,358.6,576.6,358.6z"></path>
		<path class="st0" d="M373,417.1c-1,0.6-1.4,1.6-1.4,3c0,1.9,1.1,2.9,3.2,2.9c1.6,0,2.8-0.4,3.7-1.4c1-0.9,1.4-2,1.4-3.5v-2.1    l-2.6,0.1C375.4,416.1,373.9,416.4,373,417.1z"></path>
	</g>
</g>
<circle class="st2" cx="424" cy="293" r="253.1"></circle>
<circle class="st2" cx="424.7" cy="293" r="275.7"></circle>
</svg>
